# xmcd
#
# Track frame offsets:
#	150
#	23315
#	44682
#	65210
#	86425
#	107095
#	127012
#	150180
#	171540
#	192015
#	213237
#	233905
#
# Disc length: 3381 seconds
#
# Revision: 1
# Processed by: cddbd v1.5.1PL0 Copyright (c) Steve Scherf et al.
# Submitted via: CDex 1.50Beta5
#
DISCID=9c0d330c
DTITLE=マイクハナサーズ - マイクハナサーズNew BESTI
DYEAR=1992
DGENRE=Pop
TTITLE0=マイクハナサーズ/東京パラダイス
TTITLE1=マイクハナサーズ/大阪パラダイス
TTITLE2=マイクハナサーズ/セクシー・タイムスリップ
TTITLE3=マイクハナサーズ/君こそアイドル!
TTITLE4=マイクハナサーズ/ヒーロー大行進
TTITLE5=マイクハナサーズ/ヒロイン大集合
TTITLE6=東京パラダイス
TTITLE7=大阪パラダイス
TTITLE8=セクシー・タイムスリップ
TTITLE9=君こそアイドル!
TTITLE10=ヒーロー大行進
TTITLE11=ヒロイン大集合
EXTD=
EXTT0=
EXTT1=
EXTT2=
EXTT3=
EXTT4=
EXTT5=
EXTT6=
EXTT7=
EXTT8=
EXTT9=
EXTT10=
EXTT11=
PLAYORDER=
